# xmcd CD database file
#
# Track frame offsets:
#	150
#	22297
#	46491
#	65671
#	80240
#	99435
#	122426
#	142730
#	154257
#	173855
#
# Disc length: 2709 seconds
#
# Revision: 0
# Processed by: cddbd v1.5.2PL0 Copyright (c) Steve Scherf et al.
# Submitted via: CDex 1.70beta2
#
DISCID=870a930a
DTITLE=Hania Rani - Esja
DYEAR=2019
DGENRE=Jazz
TTITLE0=Eden
TTITLE1=Sun
TTITLE2=Hawaii Oslo
TTITLE3=Pour Trois
TTITLE4=Biesy
TTITLE5=Luka
TTITLE6=Glass
TTITLE7=Today It Came
TTITLE8=Esja
TTITLE9=Now, Run
EXTD=YEAR: 2019
EXTT0=
EXTT1=
EXTT2=
EXTT3=
EXTT4=
EXTT5=
EXTT6=
EXTT7=
EXTT8=
EXTT9=
PLAYORDER=
